Coordinates
version=1
nRows=17
nColumns=24
inDegrees=yes

Units are S.I. units (second, meters, Newtons, ...)
Angles are in degrees.

endheader
time	pelvis_tilt	pelvis_list	pelvis_rotation	pelvis_tx	pelvis_ty	pelvis_tz	hip_flexion_r	hip_adduction_r	hip_rotation_r	knee_angle_r	ankle_angle_r	subtalar_angle_r	mtp_angle_r	hip_flexion_l	hip_adduction_l	hip_rotation_l	knee_angle_l	ankle_angle_l	subtalar_angle_l	mtp_angle_l	lumbar_extension	lumbar_bending	lumbar_rotation
     15.09000000	      0.27098781	     -7.49772244	   -267.57991965	     -0.00102668	      0.18410406	     -1.84912026	     32.04631797	     -3.62866900	     -5.86142650	    -20.96158711	     -2.72458186	     -5.19601927	     10.18760068	     -0.17081952	      3.13834117	      0.96507548	     -5.77604101	      8.26059632	      1.23874794	      8.87531290	     -8.85871170	      0.32678385	     -2.29797399
     15.09500000	      0.16572685	     -7.50456473	   -267.61417745	     -0.00069722	      0.18322308	     -1.84864723	     31.77776761	     -3.61062911	     -5.74231348	    -18.73857141	     -3.02604410	     -5.03548777	     10.21750515	     -0.64010172	      3.22038940	      0.97264481	     -5.54228487	      8.37645425	      1.16422552	      8.86605803	     -8.90555323	      0.22752066	     -2.32891372
     15.10000000	      0.15611919	     -7.55716008	   -267.65375026	     -0.00038140	      0.18235543	     -1.84845340	     31.70830916	     -3.55300140	     -5.93707409	    -16.92588669	     -3.08058391	     -4.58775173	     10.25930381	     -1.06352332	      3.19551032	      0.87019067	     -5.33814681	      8.58626556	      1.19822470	      8.86343280	     -8.86217386	      0.23000700	     -2.32854516
     15.10500000	      0.12192638	     -7.60743540	   -267.70072560	     -0.00011180	      0.18145838	     -1.84823893	     31.66893048	     -3.51516197	     -6.12613365	    -15.22281820	     -3.12050943	     -4.03931714	     10.32603501	     -1.48320023	      3.20032333	      0.75666125	     -5.13669488	      8.75378323	      1.28120101	      8.85912771	     -8.82475498	      0.21909763	     -2.31910205
     15.11000000	      0.09076843	     -7.65148936	   -267.70878361	      0.00013916	      0.18049807	     -1.84830268	     31.62217887	     -3.50914561	     -6.47353350	    -13.63517031	     -2.91283691	     -2.93797743	     10.81678633	     -1.92367933	      3.19060092	      0.61372018	     -4.96051119	      9.09731143	      1.68688773	      8.80908205	     -8.75432942	      0.20894247	     -2.36231307
     15.11500000	      0.06784308	     -7.69958951	   -267.75852734	      0.00050090	      0.17954716	     -1.84806053	     31.60623102	     -3.43536698	     -6.70811249	    -12.09490419	     -2.88000038	     -2.25313761	     11.08921483	     -2.31933253	      3.18308705	      0.51773533	     -4.80666049	      9.22863162	      1.83700430	      8.78008336	     -8.72891050	      0.19578946	     -2.35270073
     15.12000000	      0.05631474	     -7.74349160	   -267.80830089	      0.00082432	      0.17860078	     -1.84782306	     31.55920665	     -3.35177264	     -6.91920337	    -10.58010599	     -2.77142006	     -1.41809586	     11.33033485	     -2.70676717	      3.17383557	      0.48225761	     -4.69256957	      9.47005426	      1.75980051	      8.71656498	     -8.70792104	      0.19633740	     -2.30276336
     15.12500000	      0.02467963	     -7.77644720	   -267.87228579	      0.00123360	      0.17763233	     -1.84763581	     31.55437260	     -3.25810358	     -7.13992114	     -9.23852636	     -2.60298050	     -0.59739068	     11.57754195	     -3.07182178	      3.16659794	      0.28984322	     -4.63172535	      9.73312832	      2.02314735	      8.68434803	     -8.69191472	      0.17324447	     -2.25436438
     15.13000000	      0.02437195	     -7.81503251	   -267.93261201	      0.00168044	      0.17666821	     -1.84750037	     31.50052530	     -3.12071771	     -7.30400954	     -7.87569682	     -2.58683793	      0.02701705	     11.90408476	     -3.43311512	      3.12858929	      0.11539685	     -4.57591057	      9.98614127	      2.19364044	      8.64902287	     -8.66538444	      0.17382931	     -2.20037264
     15.13500000	     -0.01491234	     -7.85122259	   -268.00804962	      0.00215480	      0.17562745	     -1.84732784	     31.45233099	     -3.00161173	     -7.31591474	     -6.60367142	     -2.51423185	      0.53420306	     11.99263689	     -3.76264212	      3.13233093	     -0.04711952	     -4.59087680	     10.24709487	      2.23358676	      8.65110602	     -8.65133323	      0.12124702	     -2.10176691
     15.14000000	     -0.06161322	     -7.88163918	   -268.05470515	      0.00260127	      0.17458838	     -1.84721574	     31.43064215	     -2.92057868	     -7.52823737	     -5.49416251	     -2.35925929	      1.37915002	     12.23317638	     -4.09607104	      3.13940179	     -0.20423343	     -4.61033301	     10.49003321	      2.56806330	      8.64944531	     -8.63342523	      0.08153582	     -2.09176915
     15.14500000	     -0.05591595	     -7.89284481	   -268.07975280	      0.00308339	      0.17355648	     -1.84710784	     31.37266067	     -2.78150174	     -7.70911634	     -4.44782737	     -2.34970539	      1.92254150	     12.41638210	     -4.43461522	      3.09158808	     -0.31841919	     -4.66128013	     10.78741581	      2.66029339	      8.64323043	     -8.63357764	      0.08822006	     -2.04002315
     15.15000000	     -0.12016607	     -7.91453490	   -268.12309468	      0.00362381	      0.17245037	     -1.84701295	     31.39848966	     -2.71587881	     -7.88524066	     -3.64207080	     -2.14345861	      2.66300370	     12.69431333	     -4.69713383	      3.10662125	     -0.54354414	     -4.83559849	     11.06663601	      2.98109778	      8.62506612	     -8.62706538	      0.02113719	     -2.03246510
     15.15500000	     -0.15645514	     -7.95869405	   -268.13690802	      0.00414318	      0.17137237	     -1.84695310	     31.44423959	     -2.63381941	     -8.03349078	     -2.92649317	     -2.08158036	      3.12362563	     12.89414928	     -4.94767910	      3.10545033	     -0.59450180	     -4.99563631	     11.32614596	      3.11519423	      8.65645721	     -8.59126836	     -0.01983532	     -2.01647967
     15.16000000	     -0.19431806	     -7.96772317	   -268.14597655	      0.00466217	      0.17031956	     -1.84686682	     31.49475417	     -2.55930401	     -8.19203810	     -2.40607702	     -1.94909655	      3.53950003	     13.04614605	     -5.17967552	      3.10042325	     -0.66199955	     -5.25178975	     11.69454438	      3.27164071	      8.65684507	     -8.60396852	     -0.05857690	     -2.03003867
     15.16500000	     -0.23282649	     -7.93379309	   -268.14898582	      0.00525674	      0.16931746	     -1.84685497	     31.53237219	     -2.48875355	     -8.28646484	     -2.06741714	     -1.73523596	      3.86255947	     13.25443615	     -5.46518680	      3.07604994	     -0.73372949	     -5.50215584	     11.91798996	      3.58459134	      8.63973789	     -8.65214085	     -0.11109887	     -2.01529629
     15.17000000	     -0.25829322	     -7.98194441	   -268.14186751	      0.00580504	      0.16823742	     -1.84687736	     31.72171672	     -2.42040707	     -8.32783402	     -1.97540608	     -1.54585889	      3.96656860	     13.46174999	     -5.61817402	      3.04657756	     -0.78320892	     -5.83287904	     12.16585221	      3.78081044	      8.62732690	     -8.60850618	     -0.13597366	     -2.03608811
